<svg width="362.73401" height="511.99998" xmlns="http://www.w3.org/2000/svg">

 <metadata id="metadata3481">image/svg+xml</metadata>
 <g>
  <title>background</title>
  <rect fill="none" id="canvas_background" height="402" width="582" y="-1" x="-1"/>
 </g>
 <g>
  <title>Layer 1</title>
  <g id="layer1">
   <g id="g3013">
    <polygon fill="#97a4af" points="362.7340087890625,99.62001037597656 329.6880187988281,469.8190002441406 181.14500427246094,511 33.01100158691406,469.87701416015625 0.000007629395440744702,99.62001037597656 " id="polygon2989"/>
    <polygon fill="#97a4af" points="301.3970031738281,447.2460021972656 329.6369934082031,130.8939971923828 181.36700439453125,130.8939971923828 181.36700439453125,480.52301025390625 " id="polygon2991"/>
    <polygon fill="#ffffff" points="75.677001953125,268.2170104980469 79.74700927734375,313.62701416015625 181.36700439453125,313.62701416015625 181.36700439453125,268.2170104980469 " id="polygon2993"/>
    <polygon fill="#ffffff" points="181.36700439453125,176.30499267578125 181.2100067138672,176.30499267578125 67.49900817871094,176.30499267578125 71.62699890136719,221.71600341796875 181.36700439453125,221.71600341796875 " id="polygon2995"/>
    <polygon fill="#ffffff" points="181.36700439453125,433.39898681640625 181.36700439453125,386.15301513671875 181.16799926757812,386.20599365234375 130.59400939941406,372.54998779296875 127.36100769042969,336.3330078125 102.7860107421875,336.3330078125 81.7760009765625,336.3330078125 88.13800048828125,407.6340026855469 181.1580047607422,433.4570007324219 " id="polygon2997"/>
    <path fill="#97a4af" d="m85.367004,0l55,0l0,23l-32,0l0,23l32,0l0,23l-55,0l0,-69z" id="path2999"/>
    <path fill="#97a4af" d="m152.367004,0l55,0l0,20l-32,0l0,4l32,0l0,46l-55,0l0,-21l32,0l0,-4l-32,0l0,-45z" id="path3001"/>
    <path fill="#97a4af" d="m217.367004,0l55,0l0,20l-32,0l0,4l32,0l0,46l-55,0l0,-21l32,0l0,-4l-32,0l0,-45z" id="path3003"/>
    <polygon fill="#ffffff" points="236.12799072265625,313.62701416015625 230.85699462890625,372.52099609375 180.2100067138672,386.1910095214844 180.2100067138672,433.43499755859375 273.30401611328125,407.6340026855469 273.98699951171875,399.9620056152344 284.6579895019531,280.4110107421875 285.7659912109375,268.2170104980469 293.9639892578125,176.30499267578125 180.2100067138672,176.30499267578125 180.2100067138672,221.71600341796875 244.197998046875,221.71600341796875 240.06600952148438,268.2170104980469 180.2100067138672,268.2170104980469 180.2100067138672,313.62701416015625 " id="polygon3005"/>
   </g>
  </g>
 </g>
</svg>