<svg width="512" height="512" xmlns="http://www.w3.org/2000/svg">
 <title>HTML5 Logo</title>

 <g>
  <title>background</title>
  <rect fill="none" id="canvas_background" height="402" width="582" y="-1" x="-1"/>
 </g>
 <g>
  <title>Layer 1</title>
  <path fill="#97a4af" id="svg_1" d="m108.4,0l23,0l0,22.8l21.2,0l0,-22.8l23,0l0,69l-23,0l0,-23l-21,0l0,23l-23.2,0m97.6,-46l-20.3,0l0,-23l63.7,0l0,23l-20.4,0l0,46l-23,0m53.5,-69l24.1,0l14.8,24.3l14.8,-24.3l24.1,0l0,69l-23,0l0,-34.2l-16.1,24.8l-16.1,-24.8l0,34.2l-22.6,0m89.2,-69l23,0l0,46.2l32.6,0l0,22.8l-55.6,0"/>
  <path id="svg_2" d="m107.6,471l-33,-370.4l362.8,0l-33,370.2l-148.7,41.2" fill="#97a4af"/>
  <path id="svg_3" d="m256,480.5l0,-349.5l148.3,0l-28.3,316" fill="#97a4af"/>
  <path id="svg_4" d="m142,176.3l114,0l0,45.4l-64.2,0l4.2,46.5l60,0l0,45.3l-101.6,0m2,22.8l45.6,0l3.2,36.3l50.8,13.6l0,47.4l-93.2,-26" fill="#ffffff"/>
  <path id="svg_5" d="m368.6,176.3l-113.8,0l0,45.4l109.6,0m-4.1,46.5l-105.5,0l0,45.4l56,0l-5.3,59l-50.7,13.6l0,47.2l93,-25.8" fill="#ffffff"/>
 </g>
</svg>