<svg width="420" height="118" xmlns="http://www.w3.org/2000/svg">
 <g>
  <title>background</title>
  <rect x="-1" y="-1" width="422" height="120" id="canvas_background" fill="none"/>
 </g>

 <g>
  <title>Layer 1</title>
  <path fill-rule="nonzero" fill="#97a4af" d="m119.883799,46.171l0.001,-0.005s-3.352,11.88 -3.352,11.88s3.3508,-11.875 3.3508,-11.875l0.0002,0z" id="svg_1"/>
  <path fill-rule="nonzero" fill="#97a4af" d="m137.123799,71.962s-3.6938,-0.022 -3.6938,-0.022s3.6938,0.022 3.6938,0.022z" id="svg_2"/>
  <path fill-rule="nonzero" fill="#97a4af" d="m136.173799,89.703l0.004,0s-22.131,0.0806 -22.131,0.0806s22.128,-0.0806 22.128,-0.0806l-0.001,0z" id="svg_3"/>
  <path fill-rule="nonzero" fill="#97a4af" d="m140.813799,71.984s-3.6951,-0.022 -3.6951,-0.022s3.6951,0.022 3.6951,0.022z" id="svg_4"/>
  <path fill-rule="nonzero" fill="#97a4af" d="m138.113799,88.195s3.855,-14.702 3.855,-14.702s-3.855,14.705 -3.855,14.705l0,-0.002l0,-0.001z" id="svg_5"/>
  <path fill-rule="nonzero" fill="#97a4af" d="m219.593799,20.49s-7.1814,33.76 -7.1814,33.76s7.1814,-33.76 7.1814,-33.76z" id="svg_6"/>
  <path fill-rule="nonzero" fill="#97a4af" d="m201.133799,20.49s-5.4517,25.22 -5.4517,25.22s5.4517,-25.222 5.4517,-25.222l0,0.002z" id="svg_7"/>
  <path fill-rule="nonzero" fill="#97a4af" d="m218.363799,18.971l-15.356,0c-0.85205,0 -1.698,0.68359 -1.8799,1.5161c0,0 -5.4516,25.222 -5.4516,25.222s-5.4517,25.222 -5.4517,25.222c-0.18066,0.83251 -1.0254,1.5137 -1.8774,1.5137l-9.3176,0l-1.5515,0c-10.753,0 -9.5093,-7.4365 -7.3071,-17.627c0.022,-0.1025 0.044,-0.20263 0.0659,-0.30761c0,0 0.24169,-1.2842 0.24169,-1.2842c0.0146,-0.083 0.0317,-0.16603 0.0451,-0.2417c0,0 0.49072,-2.6148 0.49072,-2.6148s0.52612,-2.8027 0.52612,-2.8027c0.15992,-0.84473 0.40283,-2.0801 0.56153,-2.8564c0,0 2.478,-12.109 2.478,-12.109s2.4805,-12.109 2.4805,-12.109c0.1709,-0.83496 -0.38819,-1.521 -1.2402,-1.521l-15.762,0c-0.85206,0 -1.6956,0.68604 -1.8701,1.5186c0,0 -3.3887,16.079 -3.3887,16.079s-3.3887,16.077 -3.3887,16.077c-0.003,0.007 -0.004,0.0171 -0.005,0.0244c0,0 -0.31494,1.4942 -0.31494,1.4942c-3.9038,17.822 -2.8686,34.817 18.347,35.349c0.3467,0.01 0.61525,0.0125 0.61525,0.0125l33.302,0c0.85206,0 1.6956,-0.6836 1.8738,-1.5186c0,0 7.1814,-33.757 7.1814,-33.757s7.1814,-33.76 7.1814,-33.76c0.17701,-0.83497 -0.37598,-1.5186 -1.228,-1.5186l0.00003,-0.00089z" id="svg_8"/>
  <path fill-rule="nonzero" fill="#97a4af" d="m279.623799,72.621c0.85327,0 1.4111,0.6836 1.2402,1.5186c0,0 -1.4917,7.2876 -1.4917,7.2876" id="svg_9"/>
  <path fill-rule="nonzero" fill="#97a4af" d="m277.883799,88.719s1.4905,-7.2925 1.4905,-7.2925s-1.4917,7.2949 -1.4917,7.2949c0,-0.002 0.00099,-0.002 0.00099,-0.002l0.00021,-0.0004z" id="svg_10"/>
  <path fill-rule="nonzero" fill="#97a4af" d="m276.013799,90.253c0.002,0 0.005,-0.002 0.007,-0.002c-4.519,0.0366 -18.099,0.13916 -28.306,0.13916c12.422,0 28.298,-0.13672 28.298,-0.13672l0.001,-0.00044z" id="svg_11"/>
  <path fill-rule="nonzero" fill="#97a4af" d="m238.553799,63.234c-0.0125,-0.79835 0.896,-2.1729 1.7493,-2.1729c0,0 -1.9177,-0.0317 -1.9177,-0.0317c-0.86426,8.6914 0.16845,2.2046 0.16845,2.2046l-0.00005,0z" id="svg_12"/>
  <path fill-rule="nonzero" fill="#97a4af" d="m249.113799,90.387c-0.0976,0 -0.19775,0 -0.29542,0.002c0.0976,-0.002 0.19777,-0.002 0.29542,-0.002z" id="svg_13"/>
  <path fill-rule="nonzero" fill="#97a4af" d="m279.623799,72.621c0.85327,0 1.4111,0.6836 1.2402,1.5186c0,0 -1.4917,7.2876 -1.4917,7.2876s-0.24293,1.189 -0.24293,1.189" id="svg_14"/>
  <path fill-rule="nonzero" fill="#97a4af" d="m256.383799,90.37l-0.0623,0l0.0623,0z" id="svg_15"/>
  <path fill-rule="nonzero" fill="#97a4af" d="m252.613799,90.382l-0.21852,0l0.21852,0z" id="svg_16"/>
  <path fill-rule="nonzero" fill="#97a4af" d="m251.463799,90.385c-0.12201,0 -0.2417,0 -0.36134,0.002c0.11963,-0.002 0.23927,-0.002 0.36134,-0.002z" id="svg_17"/>
  <path fill-rule="nonzero" fill="#97a4af" d="m250.293799,90.387l-0.31737,0l0.31737,0z" id="svg_18"/>
  <path fill-rule="nonzero" fill="#97a4af" d="m252.393799,90.382c-0.31127,0 -0.62255,0.002 -0.93016,0.002c0.30761,0 0.61889,-0.002 0.93016,-0.002z" id="svg_19"/>
  <path fill-rule="nonzero" fill="#97a4af" d="m256.323799,90.37c-1.2427,0.005 -2.4829,0.01 -3.7048,0.0125c1.2219,-0.002 2.4634,-0.007 3.7048,-0.0125z" id="svg_20"/>
  <path fill-rule="nonzero" fill="#97a4af" d="m276.023799,90.25l0.001,0c-3.3118,0.0269 -11.49,0.0879 -19.646,0.11963c8.1518,-0.0292 16.332,-0.0927 19.645,-0.11963z" id="svg_21"/>
  <path fill-rule="nonzero" fill="#97a4af" d="m277.883799,88.722s1.2488,-6.106 1.2488,-6.106s-1.25,6.1108 -1.25,6.1108c0,-0.002 0.001,-0.002 0.001,-0.005l0.0002,0.0002z" id="svg_22"/>
  <path fill-rule="nonzero" fill="#97a4af" d="m251.103799,90.387l-0.81054,0l0.81054,0z" id="svg_23"/>
  <path fill-rule="nonzero" fill="#97a4af" d="m248.813799,90.389l-1.0962,0l1.0962,0z" id="svg_24"/>
  <path fill-rule="nonzero" fill="#97a4af" d="m249.973799,90.387l-0.86426,0l0.86426,0z" id="svg_25"/>
  <path fill-rule="nonzero" fill="#97a4af" d="m25.343799,63.417s2.3852,-10.574 2.3852,-10.574s-2.727,12.087 -2.727,12.087s-2.6172,12.312 -2.6172,12.312s2.2937,-10.793 2.2937,-10.793c0.177,-0.83497 0.4773,-2.1997 0.66529,-3.0322l0.00001,0.0002z" id="svg_26"/>
  <path fill-rule="nonzero" fill="#97a4af" d="m53.893799,18.793l-16.864,0c-0.85326,0 -1.7041,0.68115 -1.8945,1.5112c0,0 -1.5991,7.0581 -1.5991,7.0581s-1.5991,7.0606 -1.5991,7.0606c-0.18799,0.83008 0.35523,1.5112 1.2085,1.5112l16.995,0c0.85205,0 1.6992,-0.68115 1.8823,-1.5137c0,0 1.5454,-7.0581 1.5454,-7.0581s1.5454,-7.0532 1.5454,-7.0532l0,-0.002c0.18189,-0.83253 -0.36621,-1.5137 -1.2195,-1.5137l-0.0004,-0.0004z" id="svg_27"/>
  <path fill-rule="nonzero" fill="#97a4af" d="m50.223799,42.272l0,-0.002s-4.9463,22.883 -4.9463,22.883s4.9463,-22.881 4.9463,-22.881z" id="svg_28"/>
  <path fill-rule="nonzero" fill="#97a4af" d="m1.233799,118.09s8.501,0.10988 13.905,0.10988c-4.1052,0 -10.885,-0.0756 -13.912,-0.11225c0.003,0 0.005,0.002 0.008,0.002l-0.001,0.00037z" id="svg_29"/>
  <path fill-rule="nonzero" fill="#97a4af" d="m30.113799,42.269s-2.3877,10.574 -2.3877,10.574s2.3877,-10.574 2.3877,-10.574z" id="svg_30"/>
  <path fill-rule="nonzero" fill="#97a4af" d="m49.003799,40.756l-16.997,0c-0.85205,0 -1.7041,0.68117 -1.8921,1.5137c0,0 -2.3877,10.574 -2.3877,10.574s-2.3852,10.574 -2.3852,10.574c-0.18799,0.83253 -0.48829,2.1973 -0.66529,3.0322c0,0 -2.2937,10.793 -2.2937,10.793s-2.2925,10.793 -2.2925,10.793c-0.17822,0.83252 -0.54443,2.1777 -0.81787,2.9858c0,0 -3.175,9.4482 -8.5132,9.3408c-0.22705,-0.005 -0.448,-0.007 -0.6665,-0.0125c-2.5867,-0.0489 -4.6191,-0.0855 -4.6191,-0.0855l-0.004,0c-0.85083,-0.0125 -1.7066,0.65185 -1.9055,1.4795c0,0 -1.7627,7.4097 -1.7627,7.4097s-1.7603,7.4072 -1.7603,7.4072c-0.19775,0.82762 0.33692,1.5112 1.1841,1.5259c3.0274,0.0366 9.8071,0.11225 13.912,0.11225c13.334,0 20.363,-7.3877 24.869,-28.647c0,0 5.2734,-24.399 5.2734,-24.399s4.9463,-22.883 4.9463,-22.883c0.17945,-0.83251 -0.3711,-1.5137 -1.2232,-1.5137l0.00106,-0.00035z" id="svg_31"/>
  <path fill-rule="nonzero" fill="#97a4af" d="m290.453799,89.525c-0.85205,0 -1.405,-0.6836 -1.2256,-1.5186c0,0 12.786,-59.89 12.786,-59.89" id="svg_32"/>
  <path fill-rule="nonzero" fill="#97a4af" d="m308.223799,88.004s5.1709,-25.562 5.1709,-25.562s-5.1709,25.562 -5.1709,25.562z" id="svg_33"/>
  <path fill-rule="nonzero" fill="#97a4af" d="m289.413799,88.766c-0.10375,-0.41749 -0.0428,-1.4404 0.13793,-2.2754c0,0 6.0681,-28.428 6.0681,-28.428s-6.3928,29.944 -6.3928,29.944c-0.17944,0.83495 0.37354,1.5186 1.2256,1.5186l1.5528,0c-0.85328,0 -2.489,-0.3418 -2.5916,-0.75927l-0.00003,0.00007z" id="svg_34"/>
  <path fill-rule="nonzero" fill="#97a4af" d="m307.213799,89.183c-0.46388,0.18799 -1.543,0.3418 -2.3962,0.3418l1.5527,0c0.85205,0 1.6894,-0.6836 1.8579,-1.521c0,0 0.30761,-1.5186 0.30761,-1.5186c-0.16967,0.83496 -0.85692,2.5098 -1.322,2.6978l-0.00001,0z" id="svg_35"/>
  <path fill-rule="nonzero" fill="#97a4af" d="m310.813799,75.223s2.2827,-11.282 2.2827,-11.282c-0.001,0.007 -0.002,0.0171 -0.004,0.022c0,0 -2.279,11.26 -2.279,11.26l0.0003,0z" id="svg_36"/>
  <path fill-rule="nonzero" fill="#97a4af" d="m361.263799,32.128s0.70434,2.9102 0.70434,2.9102c0.1941,0.83251 -0.34424,1.5088 -1.1951,1.5112" id="svg_37"/>
  <path fill-rule="nonzero" fill="#97a4af" d="m308.533799,86.486s2.2766,-11.262 2.2766,-11.262s-2.2766,11.262 -2.2766,11.262z" id="svg_38"/>
  <path fill-rule="nonzero" fill="#97a4af" d="m360.563799,29.147s0.69703,2.981 0.69703,2.981s-0.69703,-2.981 -0.69703,-2.981z" id="svg_39"/>
  <path fill-rule="nonzero" fill="#97a4af" d="m313.093799,63.942c0.16969,-0.83496 0.45045,-2.1875 0.62746,-3.0151c0,0 2.4377,-11.421 2.4377,-11.421s-2.7612,12.937 -2.7612,12.937s-0.30397,1.499 -0.30397,1.499l0.00001,0.0001z" id="svg_40"/>
  <path fill-rule="nonzero" fill="#97a4af" d="m302.223799,27.135c-0.16967,0.80567 -0.38696,1.8237 -0.53101,2.4976c0,0 -6.0681,28.43 -6.0681,28.43s6.3928,-29.946 6.3928,-29.946s0.2063,-0.98145 0.2063,-0.98145l0.00001,-0.00015z" id="svg_41"/>
  <path fill-rule="nonzero" fill="#97a4af" d="m361.963799,35.038s-0.70434,-2.9102 -0.70434,-2.9102s-0.69703,-2.981 -0.69703,-2.981s-0.35278,-1.5088 -0.35278,-1.5088c-1.3806,-5.3638 -5.4334,-8.4595 -14.233,-8.4595c0,0 -13.7,-0.0146 -13.7,-0.0146s-12.617,-0.0146 -12.617,-0.0146l-1.0828,0l-13.114,0c-0.85205,0 -1.6956,0.68115 -1.8713,1.5161l-0.001,0s-0.62743,2.9663 -0.62743,2.9663s-0.74096,3.5034 -0.74096,3.5034s-0.2063,0.98145 -0.2063,0.98145s-6.3928,29.946 -6.3928,29.946s-6.0681,28.428 -6.0681,28.428c-0.18065,0.83496 -0.24169,1.8579 -0.13792,2.2754c0.1025,0.41747 1.7383,0.75927 2.5915,0.75927l12.808,0c0.85327,0 1.9324,-0.15381 2.3962,-0.3418c0.46508,-0.18799 1.1523,-1.8628 1.322,-2.6978c0,0 2.2766,-11.262 2.2766,-11.262s2.279,-11.26 2.279,-11.26c0.001,-0.005 0.002,-0.0146 0.004,-0.022c0,0 0.30396,-1.499 0.30396,-1.499s2.7612,-12.937 2.7612,-12.937s2.439,-11.426 2.439,-11.426c0.18068,-0.83007 1.0205,-1.5088 1.8713,-1.5112c0,0 40.3,-0.0195 40.3,-0.0195c0.85083,-0.002 1.3892,-0.67872 1.1951,-1.5112l-0.0011,0.00028z" id="svg_42"/>
  <path fill-rule="nonzero" fill="#97a4af" d="m413.843799,8.7244c-0.85326,0.006 -2.2485,0.0113 -3.1018,0.0113l-12.899,0c-0.85328,0 -1.9458,0.57618 -2.4268,1.2805c0,0 -28.523,41.787 -28.523,41.787c-0.48218,0.70557 -1.0315,0.60059 -1.2207,-0.22949c0,0 -2.0984,-9.2065 -2.0984,-9.2065c-0.18921,-0.83252 -1.0437,-1.5112 -1.8958,-1.5112l-18.337,0c-0.85327,0 -1.3586,0.66895 -1.1255,1.4893c0,0 8.2166,28.784 8.2166,28.784c0.23437,0.82032 0.25147,2.168 0.0403,2.9932c0,0 -3.5815,13.931 -3.5815,13.931c-0.2124,0.82764 0.3125,1.5039 1.1658,1.5039l18.123,0c0.85205,0 1.7236,-0.67627 1.9348,-1.5039c0,0 3.5828,-13.931 3.5828,-13.931c0.21119,-0.82519 0.80445,-2.0605 1.3184,-2.7417c0,0 46.306,-61.459 46.306,-61.459c0.51393,-0.68115 0.2356,-1.2354 -0.61645,-1.2292c0,0 -4.8608,0.0317 -4.8608,0.0317l-0.00095,0.00009z" id="svg_43"/>
  <path fill-rule="nonzero" fill="#97a4af" d="m268.163799,44.774s-0.001,-0.0171 -0.001,-0.0171c-0.10737,0.92528 -0.96069,1.604 -1.8128,1.604l-23.248,0c-0.80323,0 -1.2122,-0.54688 -1.0938,-1.2207c0.007,-0.0195 0.01,-0.0366 0.022,-0.0537c0,0 -0.008,0.002 -0.0146,0.007c0.005,-0.0269 0.005,-0.0512 0.0125,-0.0781c0,0 0.044,-0.16358 0.10625,-0.39552c2.2204,-5.9033 6.7432,-9.7778 15.243,-9.7778c9.5691,0 11.437,4.6753 10.787,9.9316l-0.00055,0.00032zm-6.8201,-26.834c-29.841,0 -36.912,18.113 -40.879,36.394c-3.9673,18.633 -3.6255,36.055 27.253,36.055l1.0962,0c0.0976,-0.002 0.19777,-0.002 0.29542,-0.002l0.86426,0l0.31737,0l0.81055,0c0.11963,-0.002 0.23927,-0.002 0.36133,-0.002c0.30762,0 0.6189,-0.002 0.93017,-0.002l0.21852,0c1.2219,-0.002 2.4622,-0.008 3.7048,-0.0125l0.0623,0c8.1555,-0.0317 16.334,-0.0927 19.647,-0.11962c0.84717,-0.0125 1.676,-0.6958 1.8506,-1.5234c0,0 1.25,-6.1108 1.25,-6.1108s0.24293,-1.189 0.24293,-1.189s1.4917,-7.2876 1.4917,-7.2876c0.1709,-0.83496 -0.38696,-1.5186 -1.2402,-1.5186l-27.761,0c-11.041,0 -14.32,-2.9346 -13.112,-11.56l44.377,0s-0.004,0.005 -0.004,0.005c0.0113,0 0.0208,-0.005 0.0305,-0.005c0.70556,-0.0125 1.3574,-0.49804 1.6162,-1.145c0.0489,-0.1245 0.0904,-0.25391 0.10737,-0.38818c0,0 -0.005,0.005 -0.005,0.005c6.5894,-24.854 4.6997,-41.592 -23.528,-41.592l0.00198,-0.0013z" id="svg_44"/>
  <path fill-rule="nonzero" fill="#97a4af" d="m120.303799,44.679s-0.41993,1.4868 -0.41993,1.4868c0,0.005 -0.001,0.005 -0.001,0.005s-3.3508,11.875 -3.3508,11.875s-3.3496,11.873 -3.3496,11.873c-0.23193,0.82031 -1.1182,1.4917 -1.9727,1.4917l-17.736,0c-13.453,0 -16.729,-10.522 -13.453,-26.042c3.2752,-15.874 9.6973,-25.742 22.938,-26.741c18.094,-1.3648 21.714,11.362 17.345,26.052l0.00003,-0.0005zm12.163,25.818s8.3618,-20.303 10.261,-32.031c2.59,-15.699 -5.27,-38.466 -35.63,-38.466c-30.187,0 -43.295,21.737 -48.297,45.367c-5.0012,23.801 1.5515,44.675 31.567,44.504c0,0 23.679,-0.0879 23.679,-0.0879s22.131,-0.0806 22.131,-0.0806c0.85205,-0.007 1.7236,-0.6836 1.9409,-1.5064c0,0 3.855,-14.705 3.855,-14.705c0.21485,-0.8252 -0.30639,-1.5039 -1.1584,-1.5088c0,0 -3.6951,-0.022 -3.6951,-0.022s-3.6938,-0.022 -3.6938,-0.022c-0.7251,-0.005 -1.1401,-0.47364 -1.0522,-1.0962c0.0159,-0.11225 0.0415,-0.22705 0.0904,-0.34668l0.0022,0.00158z" id="svg_45"/>
  <path fill-rule="nonzero" fill="#97a4af" d="m281.903799,56.908c0,0.56153 -0.45532,1.0181 -1.0181,1.0181c-0.56152,0 -1.0181,-0.45654 -1.0181,-1.0181c0,-0.56152 0.45655,-1.0156 1.0181,-1.0156c0.56274,0 1.0181,0.4541 1.0181,1.0156z" id="svg_46"/>
 </g>
</svg>